<svg width="1242" height="1659" viewBox="0 0 1242 1659" fill="none" xmlns="http://www.w3.org/2000/svg">
<path d="M817.714 308.651C902.571 308.651 972 239.205 972 154.326C972 69.4465 902.571 0 817.714 0C732.857 0 663.428 69.4465 663.428 154.326C663.428 239.205 732.857 308.651 817.714 308.651ZM540 1381.21L617.143 1041.7L779.143 1196.02V1659H933.428V1080.28L771.429 925.953L817.714 694.465C918 810.209 1072.29 887.372 1242 887.372V733.046C1095.43 733.046 972 655.884 910.286 547.856L833.143 424.395C802.286 378.098 756 347.233 702 347.233C678.857 347.233 663.428 354.949 640.286 354.949L239.143 524.707V887.372H393.429V625.019L532.286 571.005L408.857 1196.02L30.8571 1118.86L0 1273.19L540 1381.21Z" fill="#C9E0FF"/>
</svg>
