<svg width="4356" height="4213" viewBox="0 0 4356 4213" fill="none" xmlns="http://www.w3.org/2000/svg">
<path d="M3247 1960C3247 2512.28 2799.29 2960 2247 2960C1694.72 2960 1247 2512.28 1247 1960C1247 1407.72 1694.72 960 2247 960C2799.29 960 3247 1407.72 3247 1960Z" fill="#F1F7FF"/>
<path d="M1093 2.5C1093 2.5 1092.83 3697 1092.83 3831C682.832 3582 382.331 3247 176.831 2705.5C-28.668 2164 77.3323 1579.5 77.3323 1579.5" stroke="#1B81CB" stroke-width="100"/>
<path d="M1414.5 2C1414.5 2 1423.5 3836.5 1423.5 4001C1685 4117.5 2032 4159 2247.5 4161.5M2247.5 4161.5V2M2247.5 4161.5C2442 4170 2902 4089.5 3078 4001C3078 3876.5 3077.5 2 3077.5 2" stroke="#1B81CB" stroke-width="100"/>
<path d="M4229.5 999.5C4229.5 999.5 3919.5 354.5 3401 83C3401 124 3400 3738 3400 3832.5C4112.5 3381.5 4307.5 2733 4307.5 2733" stroke="#1B81CB" stroke-width="100"/>
</svg>
